<mxfile host="app.diagrams.net" agent="Mozilla/5.0 (Windows NT 10.0; Win64; x64) AppleWebKit/537.36 (KHTML, like Gecko) Chrome/134.0.0.0 Safari/537.36" version="26.2.4">
  <diagram name="Page-1" id="i2aBTdwhtJZPr1BNw3Ar">
    <mxGraphModel dx="1283" dy="543" grid="1" gridSize="10" guides="1" tooltips="1" connect="1" arrows="1" fold="1" page="1" pageScale="1" pageWidth="850" pageHeight="1100" math="0" shadow="0">
      <root>
        <mxCell id="0" />
        <mxCell id="1" parent="0" />
        <mxCell id="rTRjj61Fi6zlRLzbuY8W-6" style="edgeStyle=orthogonalEdgeStyle;rounded=0;orthogonalLoop=1;jettySize=auto;html=1;entryX=0.5;entryY=0;entryDx=0;entryDy=0;" edge="1" parent="1" source="rTRjj61Fi6zlRLzbuY8W-1" target="rTRjj61Fi6zlRLzbuY8W-5">
          <mxGeometry relative="1" as="geometry" />
        </mxCell>
        <mxCell id="rTRjj61Fi6zlRLzbuY8W-1" value="Query" style="rounded=0;whiteSpace=wrap;html=1;" vertex="1" parent="1">
          <mxGeometry x="220" y="20" width="120" height="60" as="geometry" />
        </mxCell>
        <mxCell id="rTRjj61Fi6zlRLzbuY8W-14" style="edgeStyle=orthogonalEdgeStyle;rounded=0;orthogonalLoop=1;jettySize=auto;html=1;" edge="1" parent="1" source="rTRjj61Fi6zlRLzbuY8W-3" target="rTRjj61Fi6zlRLzbuY8W-13">
          <mxGeometry relative="1" as="geometry" />
        </mxCell>
        <mxCell id="rTRjj61Fi6zlRLzbuY8W-3" value="Realtime_Information" style="rounded=0;whiteSpace=wrap;html=1;" vertex="1" parent="1">
          <mxGeometry x="480" y="140" width="120" height="60" as="geometry" />
        </mxCell>
        <mxCell id="rTRjj61Fi6zlRLzbuY8W-19" style="edgeStyle=orthogonalEdgeStyle;rounded=0;orthogonalLoop=1;jettySize=auto;html=1;entryX=0;entryY=0.5;entryDx=0;entryDy=0;" edge="1" parent="1" source="rTRjj61Fi6zlRLzbuY8W-5" target="rTRjj61Fi6zlRLzbuY8W-3">
          <mxGeometry relative="1" as="geometry" />
        </mxCell>
        <mxCell id="rTRjj61Fi6zlRLzbuY8W-27" style="edgeStyle=orthogonalEdgeStyle;rounded=0;orthogonalLoop=1;jettySize=auto;html=1;" edge="1" parent="1" source="rTRjj61Fi6zlRLzbuY8W-5" target="rTRjj61Fi6zlRLzbuY8W-15">
          <mxGeometry relative="1" as="geometry">
            <Array as="points">
              <mxPoint x="280" y="260" />
              <mxPoint x="485" y="260" />
            </Array>
          </mxGeometry>
        </mxCell>
        <mxCell id="rTRjj61Fi6zlRLzbuY8W-5" value="Keywords" style="rounded=0;whiteSpace=wrap;html=1;" vertex="1" parent="1">
          <mxGeometry x="220" y="140" width="120" height="60" as="geometry" />
        </mxCell>
        <mxCell id="rTRjj61Fi6zlRLzbuY8W-7" value="query_to_keywords" style="text;html=1;align=center;verticalAlign=middle;whiteSpace=wrap;rounded=0;" vertex="1" parent="1">
          <mxGeometry x="280" y="90" width="130" height="40" as="geometry" />
        </mxCell>
        <mxCell id="rTRjj61Fi6zlRLzbuY8W-9" value="useful_keywords" style="text;html=1;align=center;verticalAlign=middle;whiteSpace=wrap;rounded=0;" vertex="1" parent="1">
          <mxGeometry x="360" y="170" width="130" height="40" as="geometry" />
        </mxCell>
        <mxCell id="rTRjj61Fi6zlRLzbuY8W-26" style="edgeStyle=orthogonalEdgeStyle;rounded=0;orthogonalLoop=1;jettySize=auto;html=1;" edge="1" parent="1" source="rTRjj61Fi6zlRLzbuY8W-13" target="rTRjj61Fi6zlRLzbuY8W-15">
          <mxGeometry relative="1" as="geometry">
            <Array as="points">
              <mxPoint x="720" y="260" />
              <mxPoint x="485" y="260" />
            </Array>
          </mxGeometry>
        </mxCell>
        <mxCell id="rTRjj61Fi6zlRLzbuY8W-13" value="Realtime_Information_keywords" style="rounded=0;whiteSpace=wrap;html=1;" vertex="1" parent="1">
          <mxGeometry x="630" y="140" width="180" height="60" as="geometry" />
        </mxCell>
        <mxCell id="rTRjj61Fi6zlRLzbuY8W-29" style="edgeStyle=orthogonalEdgeStyle;rounded=0;orthogonalLoop=1;jettySize=auto;html=1;" edge="1" parent="1" source="rTRjj61Fi6zlRLzbuY8W-15">
          <mxGeometry relative="1" as="geometry">
            <mxPoint x="485" y="440" as="targetPoint" />
          </mxGeometry>
        </mxCell>
        <mxCell id="rTRjj61Fi6zlRLzbuY8W-15" value="final_keywords" style="rounded=0;whiteSpace=wrap;html=1;" vertex="1" parent="1">
          <mxGeometry x="425" y="320" width="120" height="60" as="geometry" />
        </mxCell>
        <mxCell id="rTRjj61Fi6zlRLzbuY8W-28" value="keywords_match_basedon_query" style="text;html=1;align=center;verticalAlign=middle;whiteSpace=wrap;rounded=0;" vertex="1" parent="1">
          <mxGeometry x="455" y="230" width="60" height="30" as="geometry" />
        </mxCell>
        <mxCell id="rTRjj61Fi6zlRLzbuY8W-30" value="unique_keywords" style="rounded=0;whiteSpace=wrap;html=1;" vertex="1" parent="1">
          <mxGeometry x="425" y="440" width="120" height="60" as="geometry" />
        </mxCell>
        <mxCell id="rTRjj61Fi6zlRLzbuY8W-32" value="clear_multiple_keywords" style="text;html=1;align=center;verticalAlign=middle;whiteSpace=wrap;rounded=0;" vertex="1" parent="1">
          <mxGeometry x="480" y="390" width="160" height="40" as="geometry" />
        </mxCell>
      </root>
    </mxGraphModel>
  </diagram>
</mxfile>
